<svg xmlns="http://www.w3.org/2000/svg" width="21" height="20" fill="none" viewBox="0 0 21 20"><path fill="#5D5F63" d="M10.5 0.5C4.98597 0.5 0.499966 4.53733 0.499966 9.5C0.499966 11.235 1.04897 12.9153 2.0893 14.368C1.8923 16.547 1.3643 18.1647 0.597633 18.931C0.496299 19.0323 0.470966 19.1873 0.534966 19.3153C0.591966 19.4297 0.708299 19.5 0.833299 19.5C0.848633 19.5 0.864299 19.499 0.879966 19.4967C1.01497 19.4777 4.15097 19.026 6.41897 17.7173C7.7073 18.237 9.0793 18.5 10.5 18.5C16.014 18.5 20.5 14.4627 20.5 9.5C20.5 4.53733 16.014 0.5 10.5 0.5Z"/></svg>