<svg width="21" height="20" viewBox="0 0 21 20" fill="none" xmlns="http://www.w3.org/2000/svg">
<path fill-rule="evenodd" clip-rule="evenodd" d="M1.1543 8.40235H5.60742C5.96712 8.40235 6.26172 8.74335 6.26172 9.16158V19.2426C6.26172 19.6589 5.96712 20.0018 5.60742 20.0018H1.1543C0.794596 20.0018 0.5 19.6608 0.5 19.2426V9.16158C0.5 8.74335 0.794596 8.40235 1.1543 8.40235ZM10.7637 0.840182C11.1087 -1.18506 13.9733 0.680046 14.1621 3.94493C14.2191 4.94342 14.1296 6.10582 13.918 7.40386H18.0114C19.7139 7.4811 21.1999 8.89218 20.1501 11.2094C20.3893 12.2192 20.4251 13.4042 19.7757 13.8715C19.8571 15.4653 19.4762 16.4525 18.7633 17.2324C18.7161 18.0293 18.5697 18.7377 18.2376 19.2822C17.6875 20.1808 17.2415 19.966 16.3757 19.966H9.46322C8.36784 19.966 7.77051 19.6175 7.05436 18.5776V9.66648C9.11491 9.02217 10.2103 5.75917 10.7637 3.61712V0.840182Z" fill="#5D5F63"/>
</svg>
